<svg width="1080" height="1080" viewBox="0 0 1080 1080" fill="none" xmlns="http://www.w3.org/2000/svg">
<g clip-path="url(#clip0_603_2)">
<g filter="url(#filter0_d_603_2)">
<circle cx="540" cy="540" r="540" fill="#349EFF"/>
</g>
<g filter="url(#filter1_d_603_2)">
<path d="M114.603 583.6L71.0031 538.8L114.603 494H149.803L106.203 538.8L149.803 583.6H114.603Z" fill="black"/>
</g>
<g filter="url(#filter2_d_603_2)">
<path d="M903.058 420.6L849.058 646.2H821.658L875.658 420.6H903.058ZM929.323 494H964.723L1008.32 538.8L964.723 583.6H929.323L973.123 538.8L929.323 494Z" fill="black"/>
</g>
<g filter="url(#filter3_d_603_2)">
<mask id="path-4-outside-1_603_2" maskUnits="userSpaceOnUse" x="217" y="244" width="571" height="591" fill="black">
<rect fill="white" x="217" y="244" width="571" height="591"/>
<path d="M227.938 540C227.938 485.067 240.204 436 264.738 392.8C289.804 349.067 323.671 315.2 366.338 291.2C409.538 266.667 457.804 254.4 511.138 254.4C573.538 254.4 628.204 270.4 675.138 302.4C722.071 334.4 754.871 378.667 773.538 435.2H644.738C631.938 408.533 613.804 388.533 590.338 375.2C567.404 361.867 540.738 355.2 510.338 355.2C477.804 355.2 448.738 362.933 423.138 378.4C398.071 393.333 378.338 414.667 363.938 442.4C350.071 470.133 343.138 502.667 343.138 540C343.138 576.8 350.071 609.333 363.938 637.6C378.338 665.333 398.071 686.933 423.138 702.4C448.738 717.333 477.804 724.8 510.338 724.8C540.738 724.8 567.404 718.133 590.338 704.8C613.804 690.933 631.938 670.667 644.738 644H773.538C754.871 701.067 722.071 745.6 675.138 777.6C628.738 809.067 574.071 824.8 511.138 824.8C457.804 824.8 409.538 812.8 366.338 788.8C323.671 764.267 289.804 730.4 264.738 687.2C240.204 644 227.938 594.933 227.938 540Z"/>
</mask>
<path d="M227.938 540C227.938 485.067 240.204 436 264.738 392.8C289.804 349.067 323.671 315.2 366.338 291.2C409.538 266.667 457.804 254.4 511.138 254.4C573.538 254.4 628.204 270.4 675.138 302.4C722.071 334.4 754.871 378.667 773.538 435.2H644.738C631.938 408.533 613.804 388.533 590.338 375.2C567.404 361.867 540.738 355.2 510.338 355.2C477.804 355.2 448.738 362.933 423.138 378.4C398.071 393.333 378.338 414.667 363.938 442.4C350.071 470.133 343.138 502.667 343.138 540C343.138 576.8 350.071 609.333 363.938 637.6C378.338 665.333 398.071 686.933 423.138 702.4C448.738 717.333 477.804 724.8 510.338 724.8C540.738 724.8 567.404 718.133 590.338 704.8C613.804 690.933 631.938 670.667 644.738 644H773.538C754.871 701.067 722.071 745.6 675.138 777.6C628.738 809.067 574.071 824.8 511.138 824.8C457.804 824.8 409.538 812.8 366.338 788.8C323.671 764.267 289.804 730.4 264.738 687.2C240.204 644 227.938 594.933 227.938 540Z" fill="black"/>
<path d="M264.738 392.8L256.062 387.827L256.052 387.844L256.042 387.862L264.738 392.8ZM366.338 291.2L371.24 299.916L371.258 299.906L371.276 299.896L366.338 291.2ZM773.537 435.2V445.2H787.37L783.033 432.065L773.537 435.2ZM644.738 435.2L635.722 439.527L638.445 445.2H644.738V435.2ZM590.338 375.2L585.311 383.845L585.354 383.87L585.397 383.895L590.338 375.2ZM423.138 378.4L428.256 386.991L428.282 386.975L428.309 386.959L423.138 378.4ZM363.938 442.4L355.063 437.792L355.027 437.86L354.993 437.928L363.938 442.4ZM363.938 637.6L354.96 642.004L355.01 642.107L355.063 642.208L363.938 637.6ZM423.138 702.4L417.886 710.91L417.992 710.975L418.099 711.038L423.138 702.4ZM590.338 704.8L595.364 713.445L595.394 713.427L595.425 713.409L590.338 704.8ZM644.738 644V634H638.445L635.722 639.673L644.738 644ZM773.537 644L783.042 647.109L787.33 634H773.537V644ZM675.138 777.6L680.75 785.876L680.761 785.869L680.771 785.862L675.138 777.6ZM366.338 788.8L361.353 797.469L361.417 797.506L361.481 797.542L366.338 788.8ZM264.738 687.2L256.042 692.138L256.065 692.179L256.088 692.219L264.738 687.2ZM237.938 540C237.938 486.61 249.843 439.278 273.433 397.738L256.042 387.862C230.566 432.722 217.938 483.523 217.938 540H237.938ZM273.413 397.773C297.611 355.556 330.194 323.004 371.24 299.916L361.435 282.484C317.148 307.396 281.997 342.577 256.062 387.827L273.413 397.773ZM371.276 299.896C412.86 276.28 459.404 264.4 511.138 264.4V244.4C456.204 244.4 406.215 257.053 361.399 282.504L371.276 299.896ZM511.138 264.4C571.735 264.4 624.394 279.906 669.504 310.662L680.771 294.138C632.014 260.894 575.341 244.4 511.138 244.4V264.4ZM669.504 310.662C714.53 341.362 746.029 383.781 764.042 438.335L783.033 432.065C763.713 373.552 729.612 327.438 680.771 294.138L669.504 310.662ZM773.537 425.2H644.738V445.2H773.537V425.2ZM653.753 430.873C640.16 402.554 620.686 380.942 595.278 366.505L585.397 383.895C606.922 396.125 623.715 414.513 635.722 439.527L653.753 430.873ZM595.364 366.555C570.693 352.211 542.241 345.2 510.338 345.2V365.2C539.234 365.2 564.116 371.522 585.311 383.845L595.364 366.555ZM510.338 345.2C476.147 345.2 445.262 353.35 417.966 369.841L428.309 386.959C452.213 372.517 479.462 365.2 510.338 365.2V345.2ZM418.019 369.809C391.24 385.763 370.257 408.529 355.063 437.792L372.812 447.008C386.418 420.804 404.902 400.904 428.256 386.991L418.019 369.809ZM354.993 437.928C340.305 467.305 333.137 501.427 333.137 540H353.137C353.137 503.906 359.837 472.962 372.882 446.872L354.993 437.928ZM333.137 540C333.137 578.07 340.316 612.153 354.96 642.004L372.915 633.196C359.826 606.513 353.137 575.53 353.137 540H333.137ZM355.063 642.208C370.243 671.444 391.187 694.436 417.886 710.91L428.389 693.89C404.955 679.431 386.432 659.223 372.812 632.992L355.063 642.208ZM418.099 711.038C445.375 726.949 476.212 734.8 510.338 734.8V714.8C479.397 714.8 452.1 707.718 428.176 693.762L418.099 711.038ZM510.338 734.8C542.241 734.8 570.693 727.789 595.364 713.445L585.311 696.155C564.116 708.478 539.234 714.8 510.338 714.8V734.8ZM595.425 713.409C620.742 698.449 640.172 676.62 653.753 648.327L635.722 639.673C623.703 664.714 606.867 683.417 585.25 696.191L595.425 713.409ZM644.738 654H773.537V634H644.738V654ZM764.033 640.891C746.011 695.988 714.505 738.655 669.504 769.338L680.771 785.862C729.636 752.545 763.731 706.146 783.042 647.109L764.033 640.891ZM669.525 769.324C624.98 799.532 572.324 814.8 511.138 814.8V834.8C575.818 834.8 632.495 818.601 680.75 785.876L669.525 769.324ZM511.138 814.8C459.365 814.8 412.792 803.168 371.194 780.058L361.481 797.542C406.283 822.432 456.243 834.8 511.138 834.8V814.8ZM371.322 780.131C330.2 756.485 297.587 723.888 273.387 682.181L256.088 692.219C282.021 736.912 317.142 772.048 361.353 797.469L371.322 780.131ZM273.433 682.262C249.843 640.722 237.938 593.39 237.938 540H217.938C217.938 596.477 230.566 647.278 256.042 692.138L273.433 682.262Z" fill="white" mask="url(#path-4-outside-1_603_2)"/>
</g>
</g>
<defs>
<filter id="filter0_d_603_2" x="-40" y="-40" width="1160" height="1160" filterUnits="userSpaceOnUse" color-interpolation-filters="sRGB">
<feFlood flood-opacity="0" result="BackgroundImageFix"/>
<feColorMatrix in="SourceAlpha" type="matrix" values="0 0 0 0 0 0 0 0 0 0 0 0 0 0 0 0 0 0 127 0" result="hardAlpha"/>
<feOffset/>
<feGaussianBlur stdDeviation="20"/>
<feComposite in2="hardAlpha" operator="out"/>
<feColorMatrix type="matrix" values="0 0 0 0 0 0 0 0 0 0 0 0 0 0 0 0 0 0 0.4 0"/>
<feBlend mode="normal" in2="BackgroundImageFix" result="effect1_dropShadow_603_2"/>
<feBlend mode="normal" in="SourceGraphic" in2="effect1_dropShadow_603_2" result="shape"/>
</filter>
<filter id="filter1_d_603_2" x="-28.9971" y="394" width="278.8" height="289.6" filterUnits="userSpaceOnUse" color-interpolation-filters="sRGB">
<feFlood flood-opacity="0" result="BackgroundImageFix"/>
<feColorMatrix in="SourceAlpha" type="matrix" values="0 0 0 0 0 0 0 0 0 0 0 0 0 0 0 0 0 0 127 0" result="hardAlpha"/>
<feOffset/>
<feGaussianBlur stdDeviation="50"/>
<feComposite in2="hardAlpha" operator="out"/>
<feColorMatrix type="matrix" values="0 0 0 0 0 0 0 0 0 0 0 0 0 0 0 0 0 0 0.4 0"/>
<feBlend mode="normal" in2="BackgroundImageFix" result="effect1_dropShadow_603_2"/>
<feBlend mode="normal" in="SourceGraphic" in2="effect1_dropShadow_603_2" result="shape"/>
</filter>
<filter id="filter2_d_603_2" x="721.658" y="320.6" width="386.666" height="425.6" filterUnits="userSpaceOnUse" color-interpolation-filters="sRGB">
<feFlood flood-opacity="0" result="BackgroundImageFix"/>
<feColorMatrix in="SourceAlpha" type="matrix" values="0 0 0 0 0 0 0 0 0 0 0 0 0 0 0 0 0 0 127 0" result="hardAlpha"/>
<feOffset/>
<feGaussianBlur stdDeviation="50"/>
<feComposite in2="hardAlpha" operator="out"/>
<feColorMatrix type="matrix" values="0 0 0 0 0 0 0 0 0 0 0 0 0 0 0 0 0 0 0.4 0"/>
<feBlend mode="normal" in2="BackgroundImageFix" result="effect1_dropShadow_603_2"/>
<feBlend mode="normal" in="SourceGraphic" in2="effect1_dropShadow_603_2" result="shape"/>
</filter>
<filter id="filter3_d_603_2" x="127.938" y="154.4" width="745.6" height="770.4" filterUnits="userSpaceOnUse" color-interpolation-filters="sRGB">
<feFlood flood-opacity="0" result="BackgroundImageFix"/>
<feColorMatrix in="SourceAlpha" type="matrix" values="0 0 0 0 0 0 0 0 0 0 0 0 0 0 0 0 0 0 127 0" result="hardAlpha"/>
<feOffset/>
<feGaussianBlur stdDeviation="50"/>
<feComposite in2="hardAlpha" operator="out"/>
<feColorMatrix type="matrix" values="0 0 0 0 0 0 0 0 0 0 0 0 0 0 0 0 0 0 0.4 0"/>
<feBlend mode="normal" in2="BackgroundImageFix" result="effect1_dropShadow_603_2"/>
<feBlend mode="normal" in="SourceGraphic" in2="effect1_dropShadow_603_2" result="shape"/>
</filter>
<clipPath id="clip0_603_2">
<rect width="1080" height="1080" fill="white"/>
</clipPath>
</defs>
</svg>
